<svg width="14" height="11" viewBox="0 0 14 11" xmlns="http://www.w3.org/2000/svg">
<g clip-path="url(#clip0_524_666)">
<mask id="mask0_524_666" style="mask-type:luminance" maskUnits="userSpaceOnUse" x="0" y="0" width="14" height="11">
<path d="M14 0H0V10.5H14V0Z" fill="white"/>
</mask>
<g mask="url(#mask0_524_666)">
<path d="M4.85592 8.00625L12.2716 0.590625C12.4466 0.415625 12.6507 0.328125 12.8841 0.328125C13.1173 0.328125 13.3216 0.415625 13.4966 0.590625C13.6716 0.765625 13.7591 0.973586 13.7591 1.2145C13.7591 1.45541 13.6716 1.66309 13.4966 1.8375L5.46842 9.8875C5.29342 10.0625 5.08926 10.15 4.85592 10.15C4.62258 10.15 4.41842 10.0625 4.24342 9.8875L0.480919 6.125C0.305919 5.95 0.221919 5.74234 0.228919 5.502C0.235919 5.26166 0.327211 5.05371 0.502794 4.87812C0.678378 4.70254 0.886333 4.61504 1.12667 4.61562C1.36701 4.61621 1.57467 4.70371 1.74967 4.87812L4.85592 8.00625Z" fill="#5760EC"/>
</g>
</g>
<defs>
<clipPath id="clip0_524_666">
<rect width="14" height="10.5" fill="white"/>
</clipPath>
</defs>
</svg>
